<svg 
 xmlns="http://www.w3.org/2000/svg"
 xmlns:xlink="http://www.w3.org/1999/xlink"
 width="19px" height="16px">
<path fill-rule="evenodd"  fill="rgb(126, 127, 132)"
 d="M5.558,1.113 C6.108,1.113 7.101,1.373 8.713,2.941 L9.512,3.719 L10.299,2.929 C11.418,1.805 12.609,1.108 13.407,1.108 C14.483,1.108 15.331,1.471 16.157,2.286 C16.937,3.054 17.366,4.075 17.366,5.162 C17.366,6.249 16.937,7.271 16.150,8.047 C16.086,8.111 12.699,11.721 9.861,14.748 C9.728,14.873 9.574,14.892 9.494,14.892 C9.413,14.892 9.262,14.874 9.129,14.752 C8.438,13.992 3.426,8.485 2.843,7.910 C2.063,7.141 1.634,6.120 1.634,5.033 C1.634,3.947 2.063,2.926 2.844,2.157 C3.602,1.408 4.490,1.113 5.558,1.113 M5.558,0.005 C4.217,0.005 3.035,0.401 2.051,1.373 C-0.000,3.394 -0.000,6.672 2.051,8.694 C2.637,9.273 8.321,15.520 8.321,15.520 C8.645,15.840 9.070,16.000 9.494,16.000 C9.918,16.000 10.342,15.840 10.666,15.520 C10.666,15.520 16.883,8.890 16.949,8.824 C19.000,6.801 19.000,3.523 16.949,1.502 C15.931,0.498 14.794,-0.000 13.407,-0.000 C12.082,-0.000 10.604,1.044 9.500,2.152 C8.361,1.044 6.929,0.005 5.558,0.005 L5.558,0.005 Z"/>
</svg>